<?xml version="1.0" standalone="no"?>
<!DOCTYPE svg PUBLIC "-//W3C//DTD SVG 20010904//EN"
 "http://www.w3.org/TR/2001/REC-SVG-20010904/DTD/svg10.dtd">
<svg version="1.0" xmlns="http://www.w3.org/2000/svg"
 width="512.000000pt" height="512.000000pt" viewBox="0 0 512.000000 512.000000"
 preserveAspectRatio="xMidYMid meet">

<g transform="translate(0.000000,512.000000) scale(0.100000,-0.100000)"
fill="#000000" stroke="none">
<path d="M123 4159 c-39 -11 -108 -88 -117 -130 -3 -17 -6 -486 -6 -1041 0
-1112 -4 -1047 63 -1116 17 -18 47 -37 67 -42 22 -6 633 -10 1684 -10 l1650 0
44 21 c26 13 54 38 70 62 l27 41 0 1051 0 1051 -27 41 c-16 24 -44 49 -70 62
l-44 21 -1655 -1 c-972 0 -1667 -5 -1686 -10z"/>
<path d="M3865 3961 c-79 -49 -95 -88 -95 -237 l0 -114 675 0 675 0 0 113 c-1
150 -30 215 -113 246 -19 7 -211 11 -570 11 -511 0 -544 -1 -572 -19z"/>
<path d="M3770 3320 l0 -120 675 0 675 0 0 120 0 120 -675 0 -675 0 0 -120z"/>
<path d="M3770 2213 c0 -809 0 -817 21 -860 15 -30 35 -52 67 -71 l47 -27 530
0 c292 0 542 3 557 7 40 12 89 57 109 103 18 38 19 86 19 853 l0 812 -675 0
-675 0 0 -817z m756 43 c29 -29 34 -41 34 -81 0 -40 -5 -52 -34 -81 -29 -29
-41 -34 -81 -34 -40 0 -52 5 -81 34 -29 29 -34 41 -34 81 0 40 5 52 34 81 29
29 41 34 81 34 40 0 52 -5 81 -34z m267 -380 c9 -7 22 -27 28 -44 14 -41 -9
-86 -52 -101 -52 -18 -610 -15 -654 4 -59 24 -70 91 -23 135 21 19 34 20 352
20 260 -1 335 -4 349 -14z"/>
<path d="M1358 1715 c-42 -23 -48 -66 -48 -342 l0 -253 -144 0 c-138 0 -144
-1 -170 -25 -19 -17 -26 -34 -26 -60 0 -26 7 -43 26 -60 l27 -25 781 0 c855 0
813 -3 834 58 12 35 -6 85 -37 101 -11 7 -80 11 -165 11 l-146 0 0 278 c-1
202 -4 281 -13 293 -29 38 -46 39 -474 39 -348 -1 -423 -3 -445 -15z"/>
</g>
</svg>
