<?xml version="1.0" standalone="no"?>
<!DOCTYPE svg PUBLIC "-//W3C//DTD SVG 20010904//EN"
 "http://www.w3.org/TR/2001/REC-SVG-20010904/DTD/svg10.dtd">
<svg version="1.0" xmlns="http://www.w3.org/2000/svg"
 width="512.000000pt" height="512.000000pt" viewBox="0 0 512.000000 512.000000"
 preserveAspectRatio="xMidYMid meet">

<g transform="translate(0.000000,512.000000) scale(0.100000,-0.100000)"
fill="#000000" stroke="none">
<path d="M250 5064 c-99 -26 -174 -90 -218 -184 -21 -45 -26 -70 -27 -135 0
-71 4 -88 33 -147 36 -75 90 -127 164 -161 l48 -22 2 -652 3 -653 228 -228
c125 -125 227 -230 227 -235 0 -4 -16 -7 -36 -7 -31 0 -46 -10 -102 -64 l-67
-63 -45 21 c-68 31 -186 29 -261 -6 -72 -33 -134 -95 -167 -167 -36 -76 -37
-192 -4 -265 69 -152 229 -234 386 -196 73 17 154 74 197 138 62 94 74 187 38
294 l-20 61 42 43 43 44 86 0 85 0 273 -273 272 -272 0 -108 0 -107 -373 0
c-407 0 -434 -3 -515 -57 -85 -58 -99 -87 -323 -662 -142 -366 -212 -560 -216
-596 -4 -39 0 -73 17 -126 19 -64 29 -81 84 -134 52 -51 74 -65 132 -83 l69
-23 2235 3 2235 3 66 32 c121 59 179 150 187 289 l4 80 -213 549 c-141 362
-224 563 -244 589 -44 57 -93 93 -158 116 -53 19 -82 20 -432 20 l-375 0 0 68
0 67 268 268 267 267 157 0 157 0 21 -47 c34 -76 84 -129 158 -165 59 -29 76
-33 147 -33 64 1 91 6 135 26 70 33 136 99 169 169 35 75 36 192 3 264 -37 80
-85 131 -160 168 -60 30 -75 33 -152 33 -68 -1 -94 -5 -131 -23 -74 -37 -125
-87 -160 -157 l-32 -65 -179 0 c-111 0 -188 -4 -201 -11 -12 -6 -122 -111
-245 -232 l-222 -222 0 130 0 130 491 490 c278 278 497 504 505 522 11 26 14
127 14 542 l0 510 46 20 c216 96 268 366 102 537 -159 165 -433 118 -538 -91
-21 -43 -25 -64 -25 -145 0 -87 3 -100 30 -148 36 -66 111 -135 170 -158 l45
-17 0 -490 0 -491 -42 -43 -42 -43 -128 127 -128 128 0 193 0 193 -82 -3 -83
-3 -3 -185 c-5 -280 -16 -249 156 -423 l146 -147 -229 -230 c-126 -127 -234
-230 -240 -230 -6 0 -45 35 -88 78 l-77 77 0 153 0 152 -86 0 -85 0 3 -185 3
-185 107 -107 108 -108 -108 -108 -107 -107 -3 -355 -3 -355 -164 0 -165 0 0
698 0 697 236 235 c129 129 242 247 250 262 11 21 14 81 14 291 l0 264 45 17
c63 25 139 96 172 164 24 48 28 70 28 137 0 102 -23 164 -87 231 -134 142
-352 143 -484 2 -68 -73 -89 -126 -89 -228 0 -73 4 -93 28 -142 33 -68 109
-139 172 -164 l45 -17 0 -241 0 -240 -250 -251 -250 -251 0 -732 0 -732 -170
0 -170 0 0 1349 0 1348 45 17 c59 23 134 92 170 158 27 48 30 61 30 148 0 81
-4 103 -24 145 -81 163 -275 235 -436 161 -262 -119 -268 -484 -9 -603 l54
-24 0 -867 0 -867 -125 125 -125 125 0 318 0 318 -82 -3 -83 -3 -3 -320 c-1
-176 0 -336 3 -355 5 -29 43 -72 211 -240 l204 -206 0 -362 0 -362 -165 0
-165 0 0 216 c0 137 -4 223 -11 237 -6 12 -187 199 -402 414 l-392 393 233
233 232 233 0 316 0 315 64 32 c208 102 251 368 87 532 -118 119 -289 132
-431 34 -121 -84 -168 -263 -105 -402 33 -74 99 -140 167 -169 l48 -19 0 -285
0 -285 -207 -207 -208 -208 -82 82 -83 83 0 157 0 157 47 21 c107 47 184 149
198 263 18 147 -75 300 -216 353 -70 27 -182 23 -251 -8 -71 -33 -133 -94
-167 -167 -35 -75 -37 -201 -4 -273 31 -67 94 -131 163 -164 l60 -29 0 -190 0
-189 545 -546 545 -545 0 -193 0 -192 -167 2 -168 3 -3 145 -3 145 -584 585
-585 585 0 616 0 616 45 17 c63 25 139 96 172 164 24 49 28 69 28 142 0 71 -4
94 -27 142 -46 98 -129 164 -236 187 -66 14 -84 13 -152 -5z m164 -177 c56
-32 79 -67 84 -131 3 -43 0 -62 -18 -94 -55 -97 -190 -112 -267 -30 -73 78
-49 207 47 256 56 28 104 28 154 -1z m2163 12 c126 -48 143 -228 28 -299 -42
-26 -119 -29 -163 -6 -48 25 -84 80 -89 134 -11 119 113 213 224 171z m2033
-12 c95 -50 119 -178 47 -255 -70 -76 -202 -70 -259 11 -28 40 -36 132 -15
173 45 86 141 117 227 71z m-1009 -250 c152 -81 96 -311 -76 -311 -172 0 -228
230 -76 311 24 13 58 23 76 23 18 0 52 -10 76 -23z m-1845 -83 c93 -44 117
-172 47 -255 -52 -61 -129 -75 -203 -36 -49 26 -90 90 -90 139 0 34 24 94 48
122 41 45 135 60 198 30z m-756 -506 c62 -32 92 -85 87 -156 -6 -90 -72 -152
-160 -152 -97 0 -167 69 -167 164 0 130 123 203 240 144z m3870 -1430 c58 -40
75 -72 75 -142 0 -53 -4 -68 -27 -98 -37 -49 -89 -71 -150 -66 -86 9 -139 65
-146 155 -3 49 0 64 20 93 54 80 157 106 228 58z m-4443 -254 c48 -36 66 -70
71 -131 3 -49 0 -64 -20 -93 -13 -19 -39 -45 -58 -58 -29 -20 -44 -23 -93 -20
-109 8 -173 92 -153 202 8 43 49 94 91 112 41 20 129 13 162 -12z m1003 -894
l0 -80 -202 0 c-226 0 -271 -7 -292 -48 -7 -15 -71 -200 -141 -413 -121 -365
-127 -387 -114 -414 8 -16 25 -35 39 -42 34 -17 3540 -19 3589 -2 36 13 51 35
51 76 0 46 -249 781 -275 811 l-23 27 -226 3 -226 4 0 79 0 79 374 0 c370 0
373 0 406 -22 18 -13 42 -34 52 -48 21 -29 414 -1035 424 -1084 7 -38 -15 -98
-49 -135 -50 -54 88 -51 -2300 -51 l-2214 0 -43 23 c-51 27 -90 90 -90 144 0
33 381 1033 419 1098 9 16 35 40 57 52 38 22 45 23 412 23 l372 0 0 -80z m500
0 l0 -80 -170 0 -170 0 0 80 0 80 170 0 170 0 0 -80z m500 0 l0 -80 -165 0
-165 0 0 80 0 80 165 0 165 0 0 -80z m510 0 l0 -80 -170 0 -170 0 0 80 0 80
170 0 170 0 0 -80z m500 0 l0 -80 -165 0 -165 0 0 80 0 80 165 0 165 0 0 -80z
m-2012 -422 l2 -168 80 0 80 0 2 168 3 167 168 3 167 2 0 -170 0 -170 85 0 85
0 0 170 0 170 165 0 165 0 0 -170 0 -170 85 0 85 0 0 170 0 170 170 0 170 0 0
-170 0 -171 83 3 82 3 3 168 2 167 165 0 165 0 0 -170 0 -170 85 0 85 0 0 170
0 170 179 0 179 0 96 -288 c53 -158 96 -290 96 -295 0 -4 -740 -7 -1644 -7
l-1644 0 94 283 c52 155 96 288 99 295 3 10 46 12 182 10 l178 -3 3 -167z"/>
<path d="M3942 4238 l3 -83 83 -3 82 -3 0 86 0 85 -85 0 -86 0 3 -82z"/>
<path d="M2012 3903 l3 -168 83 -3 82 -3 0 171 0 170 -85 0 -85 0 2 -167z"/>
</g>
</svg>
