<?xml version="1.0" standalone="no"?>
<!DOCTYPE svg PUBLIC "-//W3C//DTD SVG 20010904//EN"
 "http://www.w3.org/TR/2001/REC-SVG-20010904/DTD/svg10.dtd">
<svg version="1.0" xmlns="http://www.w3.org/2000/svg"
 width="512.000000pt" height="512.000000pt" viewBox="0 0 512.000000 512.000000"
 preserveAspectRatio="xMidYMid meet">

<g transform="translate(0.000000,512.000000) scale(0.100000,-0.100000)"
fill="#000000" stroke="none">
<path d="M3585 4743 c-162 -14 -341 -62 -489 -131 -55 -26 -3044 -1743 -3094
-1777 -6 -4 1418 -2460 1425 -2458 22 7 2991 1725 3068 1776 111 74 301 261
374 370 105 157 182 338 223 530 29 135 31 397 4 531 -112 571 -532 1003
-1096 1130 -128 29 -287 40 -415 29z m395 -232 c160 -43 292 -101 410 -181 73
-50 214 -183 269 -253 286 -371 336 -875 129 -1292 -85 -171 -239 -350 -388
-451 -76 -52 -2901 -1687 -2906 -1682 -20 21 -1212 2104 -1206 2109 16 17
2841 1644 2898 1670 84 38 174 68 274 90 117 26 407 21 520 -10z"/>
<path d="M3509 4325 c-85 -18 -177 -49 -253 -87 -34 -16 -654 -372 -1379 -791
-1024 -591 -1317 -764 -1312 -776 3 -8 230 -403 503 -878 370 -642 501 -861
512 -857 25 8 2630 1514 2695 1557 149 99 300 290 366 462 54 138 72 249 66
410 -6 172 -27 258 -102 410 -144 295 -409 493 -734 550 -100 18 -271 18 -362
0z m770 -542 c67 -44 101 -107 101 -190 0 -188 -224 -283 -363 -154 -51 46
-70 96 -65 171 4 77 36 135 94 171 64 39 174 40 233 2z m-759 -98 c0 -3 50
-183 110 -401 61 -217 110 -398 110 -402 0 -8 -158 -97 -170 -97 -10 0 -232
253 -323 368 -38 48 -70 87 -71 87 -1 0 41 -127 92 -282 51 -155 91 -287 88
-294 -2 -6 -41 -33 -86 -59 l-83 -47 -27 28 c-384 403 -548 583 -537 592 22
17 158 94 161 90 1 -1 52 -61 112 -133 60 -71 145 -173 189 -225 43 -52 84
-101 91 -109 7 -8 -32 118 -87 279 -55 162 -98 299 -95 305 4 12 154 102 163
98 8 -3 276 -317 338 -396 32 -42 61 -75 62 -73 2 2 -13 45 -33 97 -20 52 -67
183 -105 291 l-68 198 77 45 c75 43 92 51 92 40z m-952 -624 c17 -32 32 -61
32 -64 0 -3 -60 -40 -132 -82 -73 -42 -134 -78 -136 -80 -7 -7 82 -146 92
-142 6 3 65 36 131 75 l120 70 38 -65 c22 -35 37 -66 35 -67 -1 -2 -60 -36
-131 -76 l-127 -73 37 -66 c21 -37 43 -75 49 -85 10 -17 22 -12 151 63 77 44
144 81 149 81 8 0 74 -111 74 -123 0 -3 -35 -25 -77 -50 -43 -25 -144 -83
-225 -130 l-146 -85 -202 349 c-111 192 -200 354 -198 360 4 11 407 248 423
249 6 0 25 -26 43 -59z m-448 -558 c91 -157 182 -317 203 -354 l37 -67 -80
-47 c-68 -40 -85 -46 -103 -38 -43 20 -363 217 -455 280 -52 35 -96 63 -98 60
-2 -2 23 -47 57 -101 95 -156 241 -407 237 -410 -9 -8 -143 -84 -145 -83 -8 9
-403 701 -403 707 0 4 41 31 91 59 l91 52 131 -77 c174 -102 280 -169 347
-219 85 -64 88 -64 39 5 -45 63 -243 392 -255 423 -4 11 14 27 63 56 37 22 70
41 73 41 3 0 79 -129 170 -287z"/>
</g>
</svg>
