<?xml version="1.0" standalone="no"?>
<!DOCTYPE svg PUBLIC "-//W3C//DTD SVG 20010904//EN"
 "http://www.w3.org/TR/2001/REC-SVG-20010904/DTD/svg10.dtd">
<svg version="1.0" xmlns="http://www.w3.org/2000/svg"
 width="1022.000000pt" height="1022.000000pt" viewBox="0 0 1022.000000 1022.000000"
 preserveAspectRatio="xMidYMid meet">

<g transform="translate(0.000000,1022.000000) scale(0.100000,-0.100000)"
fill="#000000" stroke="none">
<path d="M3159 10183 l-67 -37 -63 21 c-35 12 -85 25 -111 29 -76 10 -178 -21
-240 -74 -13 -11 -39 -14 -97 -13 -97 3 -147 -10 -196 -49 -34 -27 -45 -30
-109 -30 -163 0 -282 -37 -359 -111 l-51 -49 -71 0 c-151 0 -256 -57 -300
-164 -20 -48 -18 -150 4 -214 l18 -53 -31 -57 c-52 -96 -39 -194 44 -330 l27
-44 -19 -36 c-39 -74 -10 -167 82 -266 56 -61 56 -61 48 -106 -11 -58 6 -152
37 -205 13 -23 46 -62 73 -87 45 -43 50 -51 54 -101 6 -77 37 -129 142 -237
69 -70 98 -108 111 -145 46 -125 110 -185 261 -244 72 -29 83 -36 88 -62 9
-48 65 -124 115 -157 26 -16 86 -42 134 -57 48 -15 87 -29 87 -31 0 -2 -21
-15 -47 -30 -329 -189 -557 -418 -681 -686 -63 -135 -117 -317 -141 -478 -6
-36 -15 -137 -21 -225 -11 -159 -12 -160 -47 -215 -21 -32 -59 -73 -91 -95
-30 -22 -92 -76 -137 -120 -223 -219 -387 -525 -457 -851 -20 -94 -23 -137
-23 -314 0 -219 9 -285 62 -455 52 -166 184 -404 304 -546 22 -26 32 -52 40
-100 15 -98 72 -306 132 -485 30 -88 57 -183 61 -210 10 -69 60 -256 90 -336
128 -340 380 -652 689 -853 87 -57 224 -125 249 -125 8 0 57 -34 109 -76 225
-181 513 -349 793 -464 133 -54 156 -67 210 -118 265 -252 612 -424 956 -473
109 -15 372 -15 475 0 347 53 653 202 935 455 83 75 101 86 201 125 283 110
583 283 829 481 41 33 91 65 110 71 67 22 195 92 285 154 376 263 640 667 725
1114 12 63 37 156 56 207 46 127 170 500 184 552 8 30 34 70 86 130 179 208
305 454 359 702 22 100 31 374 16 482 -60 426 -306 837 -633 1057 -26 17 -65
58 -86 89 l-39 57 -12 172 c-21 301 -66 488 -166 691 -144 291 -301 447 -705
700 -28 18 -32 16 85 52 39 12 91 35 117 51 50 32 103 102 113 149 8 35 18 44
70 60 128 40 237 133 274 236 20 53 28 64 74 91 118 71 199 183 220 306 9 54
15 68 38 81 35 21 84 82 109 137 14 32 20 66 20 121 0 66 4 82 26 115 76 111
115 237 95 307 -9 35 -7 42 24 89 18 29 41 78 50 111 15 50 15 67 5 119 -6 33
-20 83 -31 109 -17 44 -17 52 -5 76 25 49 38 145 26 198 -30 133 -129 204
-285 204 -61 0 -63 1 -111 49 -73 72 -196 111 -355 111 -63 0 -69 2 -101 34
-51 51 -124 66 -238 47 -39 -6 -55 -2 -123 30 -136 65 -274 73 -392 20 l-39
-17 -54 33 c-95 57 -170 57 -301 0 -80 -35 -82 -35 -134 -21 -98 26 -150 17
-251 -45 -56 -34 -66 -36 -165 -42 -132 -7 -184 -31 -287 -130 l-71 -69 -57 0
c-52 0 -65 -5 -125 -44 -181 -121 -378 -393 -516 -711 -21 -49 -42 -94 -45
-98 -4 -4 -24 39 -44 95 -126 343 -305 586 -531 723 -50 30 -68 35 -118 35
l-60 0 -79 76 c-103 98 -143 116 -278 123 -97 6 -110 9 -156 38 -96 62 -163
75 -259 50 -47 -13 -53 -12 -110 14 -133 59 -215 62 -306 12z m-150 -264 c85
-23 164 -60 252 -120 l62 -42 19 23 c23 29 18 53 -22 114 -17 24 -30 47 -30
50 0 19 186 -83 302 -165 38 -28 76 -53 84 -56 8 -3 22 9 34 29 18 27 20 44
17 96 l-5 62 78 -70 c43 -39 106 -100 140 -137 l63 -67 20 25 c17 21 19 34 14
99 l-6 75 108 -110 c59 -60 131 -141 160 -178 37 -46 57 -65 64 -58 6 6 15 41
21 78 l11 67 74 -84 c79 -92 178 -235 236 -343 145 -272 180 -543 92 -722 -47
-97 -149 -197 -249 -246 l-47 -22 -58 50 c-255 219 -690 490 -1085 675 -250
117 -737 309 -783 308 -5 0 33 -23 85 -51 750 -402 1233 -726 1564 -1049 l129
-126 -22 -65 c-115 -346 -496 -559 -1031 -575 -85 -3 -175 -2 -199 3 l-44 8
42 29 c46 32 78 80 61 91 -6 4 -67 11 -136 15 -179 13 -321 40 -309 60 3 4 19
11 37 14 18 4 48 19 67 35 l34 28 -119 43 c-65 23 -151 56 -191 72 -80 33
-193 102 -193 118 0 5 22 10 50 10 27 0 68 7 90 16 l41 17 -133 71 c-73 39
-178 100 -233 136 l-100 65 68 7 c37 5 81 14 97 20 l31 13 -168 134 c-92 74
-169 138 -171 142 -2 5 35 9 82 9 47 0 86 3 86 8 0 4 -37 48 -82 97 -142 158
-218 259 -204 272 3 3 19 0 37 -6 18 -6 48 -11 67 -11 39 0 112 20 112 30 0
11 -41 44 -110 91 -78 52 -153 127 -180 180 l-20 39 99 0 99 0 -14 48 c-8 26
-41 102 -74 170 -33 68 -60 128 -60 133 0 5 93 9 225 9 124 0 225 2 225 5 0 3
-22 36 -50 72 -27 36 -50 69 -50 73 0 10 89 20 175 20 80 0 170 -13 267 -37
55 -14 69 -14 82 -4 26 22 19 42 -35 94 -28 27 -43 47 -32 43 10 -3 56 -15
103 -26 47 -12 132 -35 188 -52 57 -16 110 -27 118 -24 8 3 14 18 14 33 1 22
-14 42 -67 91 l-68 63 40 -7 c22 -3 73 -14 114 -25z m3902 -27 c-33 -52 -40
-102 -16 -122 12 -10 24 -6 63 18 84 52 219 105 402 158 23 6 24 6 10 -12 -7
-10 -35 -41 -61 -69 -52 -56 -69 -92 -46 -101 8 -3 52 6 98 20 115 35 321 88
325 83 2 -2 -21 -27 -52 -57 -30 -29 -53 -58 -51 -63 9 -29 36 -29 128 -3 129
36 214 49 281 41 52 -5 115 -21 127 -32 3 -2 -20 -28 -49 -58 l-54 -55 227 0
c158 0 227 -3 227 -11 0 -6 -25 -46 -55 -89 -58 -82 -125 -212 -125 -242 0
-16 11 -18 94 -18 l95 0 -11 -31 c-25 -72 -67 -129 -162 -221 -73 -71 -98
-100 -89 -109 24 -24 134 -21 207 7 17 6 15 0 -10 -47 -18 -35 -73 -98 -156
-180 -137 -135 -143 -149 -63 -149 22 0 56 4 74 10 19 5 36 8 39 6 4 -5 -47
-53 -203 -188 -66 -57 -120 -110 -120 -118 0 -18 70 -38 134 -39 39 -1 42 -3
30 -17 -30 -37 -144 -107 -289 -180 -85 -42 -157 -78 -159 -80 -2 -2 4 -13 14
-23 12 -15 33 -21 74 -23 l56 -3 -115 -57 c-63 -31 -166 -73 -227 -94 -62 -20
-113 -40 -113 -44 0 -14 59 -49 101 -60 l44 -12 -35 -18 c-56 -28 -165 -49
-310 -59 -141 -10 -200 -24 -200 -46 0 -7 26 -36 58 -64 l57 -51 -75 0 c-348
0 -676 68 -879 182 -150 85 -276 235 -332 395 l-20 58 127 124 c184 177 371
325 644 508 210 141 581 359 843 498 199 105 164 99 -148 -27 -665 -266 -1218
-573 -1563 -866 l-54 -46 -45 25 c-122 65 -232 207 -264 339 -25 105 -13 253
33 400 32 103 132 296 205 399 69 95 207 251 224 251 5 0 9 -11 9 -25 0 -21
26 -101 37 -114 4 -5 82 81 185 204 42 50 88 101 102 115 l27 24 -6 -64 c-5
-56 -3 -70 16 -100 l22 -35 25 35 c49 67 147 156 217 198 38 22 71 40 73 38 2
-2 -4 -19 -13 -36 -22 -43 -13 -89 25 -125 l29 -28 123 83 c111 75 257 154
267 145 2 -3 -11 -26 -28 -53z m-1589 -2563 c291 -57 583 -224 732 -418 80
-104 113 -200 103 -297 -25 -241 -291 -422 -727 -496 -177 -30 -466 -30 -631
0 -271 49 -495 154 -635 297 -85 87 -129 177 -129 265 0 249 380 556 800 646
165 36 315 37 487 3z m-1687 -190 c66 -5 137 -14 158 -20 32 -9 37 -14 37 -40
0 -67 -98 -203 -297 -409 -446 -463 -1066 -929 -1262 -948 -43 -4 -50 -2 -71
24 -22 28 -22 34 -17 160 16 356 132 638 357 865 235 238 546 363 940 378 19
0 89 -4 155 -10z m3227 -55 c377 -64 680 -266 855 -569 113 -194 172 -431 173
-682 0 -102 -2 -115 -21 -134 -48 -48 -181 1 -411 154 -505 336 -1218 1030
-1218 1185 0 31 22 41 106 52 174 22 366 20 516 -6z m-432 -1009 c332 -54 632
-253 839 -557 137 -203 234 -494 247 -745 12 -217 -22 -386 -112 -569 -149
-303 -392 -458 -744 -471 -354 -14 -721 150 -974 433 -64 72 -187 258 -229
345 -188 390 -163 856 63 1184 60 86 176 200 257 252 189 121 418 166 653 128z
m-2245 -64 c267 -79 477 -273 583 -541 127 -321 96 -713 -84 -1074 -135 -268
-325 -468 -576 -601 -165 -88 -330 -128 -518 -128 -490 3 -851 347 -910 868
-29 256 25 526 158 792 111 219 365 464 611 588 85 42 237 94 326 111 102 20
319 12 410 -15z m3921 -657 c387 -233 599 -661 554 -1126 -29 -307 -136 -559
-315 -745 -63 -66 -74 -73 -109 -73 -21 0 -53 7 -72 16 -159 76 -323 530 -385
1064 -18 154 -15 474 5 587 48 274 163 373 322 277z m-5982 -8 c111 -46 167
-240 166 -583 0 -626 -206 -1314 -414 -1383 -20 -6 -48 -9 -61 -6 -83 21 -255
261 -325 455 -54 148 -71 241 -77 421 -4 149 -3 177 20 285 38 189 102 331
217 483 93 123 255 266 368 324 43 22 62 22 106 4z m3251 -1481 c300 -69 534
-213 695 -427 112 -148 169 -288 197 -477 49 -340 -86 -679 -363 -915 -134
-114 -316 -205 -499 -249 -133 -31 -411 -31 -540 0 -188 47 -342 117 -478 219
-223 167 -364 387 -418 649 -17 84 -15 274 5 367 88 412 420 734 859 834 146
34 396 33 542 -1z m2520 -358 c64 -32 86 -56 128 -142 67 -135 107 -295 128
-503 28 -286 -42 -621 -173 -824 -152 -235 -383 -455 -598 -567 -150 -78 -350
-131 -496 -131 -143 0 -301 51 -381 123 -119 108 -152 346 -87 635 35 155 73
262 149 417 108 220 222 372 460 611 201 202 400 339 565 389 30 9 60 19 65
21 6 2 51 2 100 0 72 -2 100 -8 140 -29z m-5302 -231 c208 -40 455 -191 677
-415 142 -143 234 -264 304 -401 111 -217 167 -432 167 -641 0 -141 -10 -195
-52 -285 -52 -112 -136 -162 -304 -185 -422 -56 -962 279 -1182 733 -59 119
-105 251 -134 375 -29 126 -37 362 -15 468 19 96 72 207 121 258 90 93 242
126 418 93z m2926 -1912 c368 -54 652 -186 707 -330 20 -53 12 -89 -37 -160
-44 -65 -201 -207 -313 -283 -470 -319 -951 -366 -1402 -135 -238 122 -438
294 -501 432 -28 61 -26 86 15 142 102 143 489 286 892 330 58 6 114 13 125
14 73 11 420 4 514 -10z"/>
</g>
</svg>
