<?xml version="1.0" standalone="no"?>
<!DOCTYPE svg PUBLIC "-//W3C//DTD SVG 20010904//EN"
 "http://www.w3.org/TR/2001/REC-SVG-20010904/DTD/svg10.dtd">
<svg version="1.0" xmlns="http://www.w3.org/2000/svg"
 width="512.000000pt" height="512.000000pt" viewBox="0 0 512.000000 512.000000"
 preserveAspectRatio="xMidYMid meet">

<g transform="translate(0.000000,512.000000) scale(0.100000,-0.100000)"
fill="#000000" stroke="none">
<path d="M4170 5070 c-214 -27 -389 -183 -445 -396 -13 -50 -15 -216 -15
-1209 l0 -1151 -36 -35 c-54 -51 -120 -148 -159 -232 -51 -111 -68 -193 -68
-327 1 -142 23 -234 90 -363 39 -75 64 -109 143 -187 179 -179 349 -247 595
-237 100 3 135 9 206 34 122 42 210 94 297 177 177 167 262 377 249 616 -10
186 -70 336 -193 483 l-64 76 0 1118 c0 674 -4 1146 -10 1188 -14 99 -76 221
-148 293 -114 114 -282 172 -442 152z m187 -556 c29 -14 66 -42 83 -64 63 -80
60 -13 60 -1246 l0 -1123 51 -51 c59 -59 106 -153 122 -244 14 -81 -3 -183
-44 -265 -33 -66 -123 -157 -187 -190 -224 -114 -489 -27 -600 198 -36 73 -37
77 -37 190 0 110 2 120 32 184 18 37 55 91 82 120 l51 53 2 1135 3 1134 24 45
c28 55 66 97 106 118 90 47 163 49 252 6z"/>
<path d="M4179 4341 l-29 -29 0 -1129 c0 -697 -4 -1141 -10 -1162 -5 -19 -36
-62 -70 -97 -90 -94 -116 -175 -86 -276 53 -183 280 -250 423 -124 124 109
125 275 3 395 -31 31 -62 66 -69 78 -8 16 -11 324 -11 1151 0 800 -3 1138 -11
1161 -12 33 -52 61 -89 61 -12 0 -35 -13 -51 -29z"/>
<path d="M4854 4569 c3 -34 6 -73 6 -85 0 -24 1 -24 104 -24 104 0 104 0 130
31 30 35 32 58 11 98 -19 38 -30 41 -152 41 l-106 0 7 -61z"/>
<path d="M411 4434 c-24 -19 -31 -34 -31 -60 0 -28 237 -1121 271 -1247 6 -21
19 -47 30 -58 18 -18 38 -19 684 -19 l665 0 0 189 c0 173 2 190 20 214 25 31
65 42 102 26 60 -25 58 -2 58 -779 l0 -710 238 0 239 0 24 26 24 26 0 1101 c0
1252 7 1155 -84 1240 -87 81 -20 77 -1182 77 l-1027 0 -31 -26z m729 -174 c22
-11 52 -39 67 -62 27 -40 28 -46 28 -177 0 -124 -2 -140 -23 -176 -13 -22 -39
-52 -59 -65 -33 -23 -48 -25 -156 -29 -133 -4 -180 6 -227 45 -54 46 -60 69
-60 221 0 124 3 142 23 177 14 25 39 48 66 63 40 21 57 23 173 23 109 0 135
-3 168 -20z m861 -9 c57 -58 26 -133 -62 -146 -24 -4 -138 -5 -254 -3 -227 3
-244 7 -265 59 -15 35 -4 75 27 99 24 19 42 20 275 20 l250 0 29 -29z m-182
-347 c25 -20 31 -34 31 -64 0 -30 -6 -44 -31 -64 -30 -25 -34 -26 -179 -26
-82 0 -160 4 -174 10 -15 5 -34 25 -43 45 -16 33 -16 37 0 70 9 20 27 40 39
45 13 5 91 9 175 9 149 1 152 1 182 -25z"/>
<path d="M880 4015 l0 -85 90 0 90 0 0 85 0 85 -90 0 -90 0 0 -85z"/>
<path d="M50 4251 c-17 -16 -30 -37 -30 -46 0 -39 193 -922 207 -943 21 -33
56 -43 143 -40 l77 3 -117 525 -117 525 -67 3 c-62 3 -68 1 -96 -27z"/>
<path d="M4860 4105 l0 -85 101 0 c112 0 131 6 149 49 15 37 7 74 -22 101 -19
17 -35 20 -125 20 l-103 0 0 -85z"/>
<path d="M2964 4006 c-54 -24 -55 -30 -52 -535 l3 -463 28 -24 c47 -40 107
-30 135 23 16 29 17 935 2 964 -10 18 -60 49 -77 49 -4 -1 -22 -7 -39 -14z"/>
<path d="M4860 3665 l0 -85 104 0 c120 0 143 11 153 72 5 32 1 41 -25 68 -30
29 -32 30 -131 30 l-101 0 0 -85z"/>
<path d="M4860 3220 l0 -90 85 0 c51 0 99 6 120 14 62 26 74 89 26 137 -29 28
-32 29 -130 29 l-101 0 0 -90z"/>
<path d="M930 2857 c-35 -18 -50 -53 -50 -120 0 -62 18 -109 47 -123 10 -5
179 -11 375 -14 342 -5 358 -6 385 -26 44 -33 71 -80 78 -137 3 -29 5 -493 3
-1032 -3 -1092 2 -1010 -74 -1095 -48 -53 -98 -78 -174 -89 -75 -10 -104 -34
-104 -86 0 -25 8 -43 27 -63 l27 -27 443 -3 c243 -2 457 0 476 3 18 4 44 17
57 30 l24 24 0 826 0 827 -29 29 c-29 29 -30 29 -151 29 -159 0 -207 22 -245
113 -13 31 -15 105 -15 492 l0 455 -537 0 c-412 0 -544 -3 -563 -13z"/>
<path d="M4860 2779 l0 -91 106 4 c102 3 107 4 130 31 33 39 31 81 -5 118 -29
28 -32 29 -130 29 l-101 0 0 -91z"/>
<path d="M1436 2354 c-68 -132 -162 -267 -254 -365 -23 -25 -33 -44 -30 -60
l3 -24 218 -3 217 -2 0 265 0 265 -57 0 -58 0 -39 -76z"/>
</g>
</svg>
