<?xml version="1.0" standalone="no"?>
<!DOCTYPE svg PUBLIC "-//W3C//DTD SVG 20010904//EN"
 "http://www.w3.org/TR/2001/REC-SVG-20010904/DTD/svg10.dtd">
<svg version="1.0" xmlns="http://www.w3.org/2000/svg"
 width="512.000000pt" height="512.000000pt" viewBox="0 0 512.000000 512.000000"
 preserveAspectRatio="xMidYMid meet">

<g transform="translate(0.000000,512.000000) scale(0.100000,-0.100000)"
fill="#000000" stroke="none">
<path d="M765 5111 c-366 -60 -640 -305 -737 -660 -30 -110 -30 -333 0 -446
121 -449 568 -740 1017 -662 l89 16 287 -292 287 -292 316 315 c174 173 315
318 314 322 -2 3 -130 137 -286 297 l-283 291 12 57 c20 89 15 292 -9 384
-108 404 -429 662 -842 674 -63 2 -137 0 -165 -4z m290 -423 c29 -15 294 -278
311 -310 22 -42 17 -80 -35 -274 -54 -201 -59 -214 -99 -243 -28 -19 -385
-121 -426 -121 -46 0 -109 46 -234 174 -135 137 -152 162 -152 222 0 42 83
357 107 402 25 49 62 66 248 115 230 62 225 61 280 35z"/>
<path d="M4065 5105 c-188 -34 -346 -117 -479 -251 -147 -146 -231 -322 -258
-539 -10 -89 -4 -197 18 -305 4 -22 -120 -150 -1103 -1132 l-1108 -1107 -105
16 c-220 33 -454 -21 -642 -148 -129 -88 -254 -243 -316 -391 -76 -183 -94
-456 -35 -535 34 -46 67 -65 116 -65 25 0 56 6 69 12 12 7 82 70 153 141 164
161 206 184 329 177 91 -5 131 -21 189 -77 103 -97 122 -252 46 -371 -15 -25
-80 -97 -144 -160 -64 -63 -123 -128 -132 -144 -21 -40 -19 -113 5 -145 36
-49 78 -69 158 -76 355 -34 714 167 876 490 40 78 77 207 90 310 10 89 4 197
-18 305 -4 22 121 150 1104 1134 l1109 1108 59 -13 c92 -21 293 -16 386 9 157
42 262 96 374 192 182 157 296 388 310 630 8 134 -7 214 -48 257 -31 32 -86
56 -111 48 -7 -2 -25 -6 -42 -10 -19 -4 -74 -51 -166 -141 -170 -167 -209
-189 -333 -182 -91 5 -131 21 -189 77 -103 97 -122 252 -46 371 15 25 80 97
144 160 64 63 123 128 132 144 34 65 14 142 -50 189 -48 37 -208 47 -342 22z"/>
<path d="M3090 2025 l-315 -315 288 -288 289 -289 -18 -103 c-73 -442 215
-880 661 -1001 115 -32 335 -32 450 0 312 85 561 334 646 646 32 115 32 335 0
450 -121 446 -559 734 -1001 661 l-103 -18 -286 286 c-157 157 -288 286 -291
286 -3 0 -147 -142 -320 -315z m1293 -676 c12 -6 88 -77 170 -158 155 -153
176 -186 161 -248 -30 -127 -95 -355 -108 -380 -24 -47 -66 -66 -259 -118
-255 -68 -233 -74 -424 116 -123 123 -156 162 -164 194 -10 35 -6 60 37 220
53 200 70 244 110 270 35 22 366 113 417 114 21 1 48 -4 60 -10z"/>
</g>
</svg>
