<?xml version="1.0" standalone="no"?>
<!DOCTYPE svg PUBLIC "-//W3C//DTD SVG 20010904//EN"
 "http://www.w3.org/TR/2001/REC-SVG-20010904/DTD/svg10.dtd">
<svg version="1.0" xmlns="http://www.w3.org/2000/svg"
 width="1124.000000pt" height="1124.000000pt" viewBox="0 0 1124.000000 1124.000000"
 preserveAspectRatio="xMidYMid meet">

<g transform="translate(0.000000,1124.000000) scale(0.100000,-0.100000)"
fill="#000000" stroke="none">
<path d="M0 5620 l0 -5620 5620 0 5620 0 0 5620 0 5620 -5620 0 -5620 0 0
-5620z m10750 0 l0 -5150 -5130 0 -5130 0 0 5150 0 5150 5130 0 5130 0 0
-5150z"/>
<path d="M7015 10733 c-10 -3 -29 -12 -42 -20 -12 -8 -47 -16 -77 -17 -33 -2
-63 -9 -73 -18 -10 -9 -48 -18 -87 -22 -74 -7 -129 -26 -161 -55 -11 -10 -40
-21 -65 -23 -119 -13 -178 -93 -140 -193 8 -20 6 -32 -5 -48 -22 -32 -18 -97
8 -150 17 -32 21 -51 14 -62 -15 -27 1 -80 38 -126 23 -30 33 -50 29 -65 -9
-36 15 -103 52 -143 18 -21 34 -48 34 -60 0 -33 17 -60 76 -123 30 -31 54 -63
54 -72 0 -29 60 -84 115 -106 39 -16 55 -28 55 -41 0 -29 62 -83 114 -99 l48
-15 -80 -53 c-105 -69 -227 -198 -268 -283 -48 -98 -74 -193 -85 -314 -6 -60
-13 -120 -15 -133 -3 -13 -53 -71 -112 -130 -174 -174 -245 -326 -259 -557
-10 -178 39 -346 145 -493 44 -62 58 -90 69 -147 8 -38 32 -125 54 -193 21
-68 39 -133 39 -145 1 -40 55 -182 100 -261 80 -140 229 -280 364 -342 31 -14
97 -56 147 -94 89 -67 254 -159 356 -199 29 -11 87 -50 129 -85 93 -77 239
-156 349 -188 105 -30 324 -32 425 -4 132 36 265 109 375 205 35 31 84 61 133
80 107 44 241 120 342 194 47 34 119 79 160 99 206 103 386 333 436 557 9 42
44 159 78 261 56 172 65 190 118 258 68 86 131 211 152 302 22 94 21 268 -3
362 -24 92 -67 186 -115 253 -45 62 -142 161 -179 183 -50 30 -65 67 -76 192
-28 301 -143 490 -391 641 l-54 33 42 12 c66 20 100 45 121 90 14 30 28 44 48
48 51 13 104 55 124 101 12 27 33 52 54 65 48 30 81 76 96 133 6 27 18 51 26
54 23 9 63 88 63 125 0 21 13 61 30 93 20 38 30 72 30 101 0 25 9 61 21 84 18
35 20 50 14 98 -8 63 -9 83 -3 158 5 85 -34 128 -129 140 -30 4 -57 15 -73 30
-26 24 -123 54 -174 54 -16 0 -38 8 -49 18 -14 12 -38 18 -87 19 -38 1 -82 9
-98 17 -47 24 -108 30 -168 16 -42 -10 -57 -11 -66 -2 -17 17 -133 15 -167 -2
-22 -12 -36 -12 -70 -4 -37 9 -47 8 -92 -16 -31 -16 -67 -26 -92 -26 -52 0
-113 -28 -151 -69 -21 -22 -39 -31 -61 -31 -83 0 -224 -158 -315 -353 l-38
-80 -22 59 c-37 99 -89 189 -146 252 -63 70 -139 122 -179 122 -18 0 -42 13
-67 36 -49 44 -95 64 -147 64 -23 0 -60 11 -90 27 -46 23 -57 25 -95 16 -33
-7 -50 -7 -68 3 -29 17 -142 18 -167 2 -15 -9 -28 -9 -59 0 -40 12 -81 14
-117 5z m121 -138 c27 -8 71 -28 97 -45 27 -17 53 -28 58 -25 14 9 11 38 -7
63 -23 34 -5 27 91 -33 96 -60 111 -60 117 -2 l3 32 64 -62 c35 -34 68 -60 73
-57 4 3 8 24 8 47 l0 42 53 -55 c29 -30 65 -71 80 -90 22 -29 29 -32 37 -20 5
8 10 26 10 40 1 25 1 24 31 -10 128 -150 212 -344 194 -455 -13 -85 -68 -165
-138 -202 -28 -14 -30 -13 -85 31 -106 86 -286 200 -437 277 -150 76 -400 179
-433 179 -20 0 -9 -8 181 -114 257 -144 451 -280 584 -409 l81 -79 -14 -41
c-59 -169 -266 -276 -534 -277 l-95 0 28 26 c15 14 25 29 23 33 -3 4 -38 11
-78 14 -87 8 -138 17 -138 26 0 3 10 11 22 16 40 18 29 32 -49 59 -43 15 -98
40 -123 54 l-45 26 38 7 c36 6 55 15 46 22 -2 2 -31 19 -64 37 -33 19 -82 49
-110 67 l-50 33 35 0 c66 0 66 13 -2 70 -35 29 -71 58 -80 64 -28 17 -21 25
22 28 l40 3 -66 75 c-93 107 -93 106 -31 105 34 0 52 4 52 12 0 6 -25 30 -55
51 -30 22 -63 54 -73 71 l-18 31 45 0 c57 0 58 6 12 106 l-35 74 116 0 115 0
-26 34 c-14 19 -26 37 -26 40 0 10 147 6 200 -5 67 -14 85 -1 50 36 -13 14
-22 25 -19 25 2 0 45 -11 94 -25 50 -14 96 -25 103 -25 24 0 12 39 -20 64 -38
30 -25 33 48 11z m1946 -7 c-14 -14 -16 -68 -3 -68 5 0 29 11 53 25 43 24 151
65 171 65 5 0 -5 -16 -22 -35 -55 -63 -46 -66 83 -30 49 14 91 23 93 21 2 -1
-6 -11 -17 -21 -25 -22 -26 -45 -2 -45 9 0 39 7 66 15 51 16 124 19 164 9 l23
-7 -27 -28 -28 -29 112 0 c62 0 112 -3 112 -6 0 -3 -14 -25 -31 -50 -27 -39
-59 -104 -59 -119 0 -3 20 -5 45 -5 66 0 58 -29 -33 -122 -62 -63 -58 -75 18
-65 22 3 40 1 40 -4 0 -5 -34 -45 -76 -89 -60 -62 -73 -81 -60 -86 9 -3 28 -3
44 0 22 5 12 -8 -53 -69 -85 -79 -88 -94 -20 -95 l30 -1 -32 -27 c-18 -16 -69
-46 -113 -67 -82 -41 -92 -55 -49 -65 l24 -6 -25 -17 c-20 -13 -94 -43 -179
-72 -19 -7 5 -35 30 -35 33 0 21 -19 -18 -29 -21 -6 -75 -13 -120 -17 -107 -9
-116 -15 -78 -54 l30 -32 -100 7 c-303 21 -467 105 -530 270 l-18 46 29 30
c124 131 486 383 723 504 61 31 60 52 -2 28 -300 -116 -618 -290 -778 -424
-46 -39 -49 -39 -76 -25 -36 18 -86 71 -109 116 -15 27 -19 56 -19 125 1 78 5
100 32 162 37 86 107 194 161 246 l39 38 6 -30 c4 -17 12 -31 19 -30 7 0 42
35 78 77 64 75 65 76 68 47 7 -57 20 -58 71 -6 26 27 61 55 77 64 l29 15 0
-35 c0 -53 24 -63 67 -29 72 54 180 104 140 64z m-767 -1294 c166 -39 342
-170 379 -281 16 -50 17 -56 1 -102 -31 -94 -147 -171 -310 -206 -116 -25
-316 -24 -416 3 -185 49 -328 167 -329 270 0 73 115 201 235 260 151 76 285
93 440 56z m-827 -93 c23 -5 46 -12 50 -15 25 -26 -152 -231 -347 -400 -187
-162 -375 -286 -434 -286 -46 0 -52 20 -39 130 20 173 80 297 194 405 79 75
198 137 303 159 78 16 208 19 273 7z m1647 -41 c110 -34 184 -79 260 -155 114
-115 179 -279 173 -441 l-3 -79 -42 1 c-30 0 -61 12 -115 45 -247 149 -667
548 -656 623 4 29 46 35 193 31 89 -2 138 -9 190 -25z m-285 -490 c213 -34
409 -211 493 -445 136 -379 -59 -724 -408 -725 -234 0 -463 153 -574 385 -51
105 -66 170 -65 285 0 151 44 269 136 366 109 115 250 160 418 134z m-1058
-63 c163 -80 251 -239 251 -452 0 -336 -247 -641 -554 -684 -187 -26 -379 71
-466 236 -90 167 -82 386 19 588 75 147 236 280 408 337 42 14 80 17 161 15
99 -2 110 -4 181 -40z m1914 -316 c109 -73 181 -169 226 -300 30 -87 33 -274
5 -366 -41 -133 -143 -285 -192 -285 -105 0 -217 303 -232 630 -8 182 13 288
69 340 32 29 58 25 124 -19z m-2998 -4 c45 -48 56 -100 56 -277 0 -174 -19
-307 -65 -457 -42 -135 -109 -233 -159 -233 -26 0 -101 87 -143 168 -47 89
-67 174 -67 287 0 204 82 370 240 486 73 54 106 60 138 26z m1606 -722 c109
-23 210 -78 292 -160 107 -106 158 -223 157 -365 -1 -193 -127 -378 -318 -466
-88 -40 -154 -54 -258 -54 -165 0 -307 59 -428 180 -160 159 -200 351 -112
550 48 109 149 212 266 272 105 53 269 71 401 43z m1266 -180 c95 -49 156
-374 105 -565 -34 -132 -137 -283 -253 -375 -237 -188 -549 -187 -602 3 -42
152 45 435 189 614 70 87 197 211 266 258 107 74 227 100 295 65z m-2574 -145
c281 -127 483 -415 485 -688 1 -183 -57 -245 -226 -245 -139 1 -287 67 -404
183 -103 101 -175 236 -206 385 -28 136 -15 242 38 323 25 37 42 51 82 65 66
23 148 15 231 -23z m1492 -949 c128 -37 208 -85 237 -142 12 -22 12 -30 -1
-55 -38 -73 -172 -181 -297 -239 -186 -86 -377 -88 -554 -5 -159 74 -297 209
-278 270 11 35 87 89 167 120 160 62 275 80 488 76 133 -3 179 -8 238 -25z"/>
<path d="M4623 10685 c-188 -41 -334 -178 -399 -375 -17 -52 -19 -124 -22
-1213 l-3 -1158 -65 -77 c-134 -160 -202 -358 -190 -557 7 -125 26 -196 81
-310 101 -210 292 -365 520 -426 108 -28 279 -29 385 -1 199 53 357 163 464
326 106 159 141 287 134 485 -4 107 -10 139 -35 213 -38 109 -97 210 -168 287
l-55 59 0 1138 c0 1253 1 1217 -62 1337 -48 91 -146 186 -238 230 -118 56
-223 69 -347 42z m223 -549 c27 -13 66 -42 87 -66 71 -83 67 -9 67 -1253 l0
-1120 50 -53 c244 -257 103 -674 -247 -735 -308 -54 -577 255 -484 559 21 71
88 175 133 206 l23 16 5 1149 5 1148 34 50 c78 114 209 154 327 99z"/>
<path d="M4676 9964 l-26 -27 0 -1126 c0 -762 -4 -1138 -11 -1164 -6 -24 -30
-58 -64 -91 -78 -78 -100 -124 -100 -216 0 -58 5 -84 22 -116 50 -95 136 -148
238 -147 153 0 264 110 265 263 0 82 -30 148 -95 210 -25 25 -52 54 -58 65 -9
15 -13 317 -17 1173 l-5 1154 -28 24 c-38 33 -86 32 -121 -2z"/>
<path d="M5350 10171 l0 -91 110 0 c104 0 112 1 135 25 33 32 33 84 1 122 -23
27 -28 28 -135 31 l-111 4 0 -91z"/>
<path d="M917 10069 c-9 -5 -24 -23 -32 -40 -15 -29 -10 -57 127 -671 114
-516 146 -647 164 -667 l22 -26 666 -3 665 -2 3 194 c3 190 4 195 27 220 32
34 88 36 119 3 l22 -23 2 -725 3 -724 215 -3 c135 -2 229 1 252 8 73 21 69
-57 66 1172 l-3 1103 -25 49 c-14 27 -42 64 -64 82 -78 67 -19 64 -1170 64
-689 -1 -1047 -4 -1059 -11z m695 -179 c45 -13 105 -77 113 -123 4 -19 5 -90
3 -159 -3 -119 -4 -126 -31 -161 -43 -56 -78 -70 -194 -75 -161 -7 -237 21
-274 102 -15 33 -19 66 -19 163 0 128 7 163 43 202 43 46 93 61 212 61 61 0
126 -5 147 -10z m890 -17 c33 -33 30 -89 -6 -119 -27 -24 -29 -24 -275 -24
-236 0 -250 1 -275 21 -44 35 -34 108 19 138 14 7 99 10 267 8 241 -2 248 -3
270 -24z m-202 -341 c66 -33 66 -111 0 -145 -30 -15 -56 -17 -182 -15 -139 3
-148 4 -172 27 -49 46 -26 128 39 144 11 3 79 5 150 6 105 1 137 -2 165 -17z"/>
<path d="M545 9875 c-15 -14 -25 -36 -25 -52 0 -39 187 -913 201 -939 17 -33
52 -44 146 -44 77 0 85 2 81 18 -3 9 -56 248 -119 530 l-113 512 -74 0 c-64 0
-76 -3 -97 -25z"/>
<path d="M5354 9807 c-3 -8 -4 -49 -2 -93 l3 -79 108 0 c107 0 109 1 133 28
43 50 28 118 -31 143 -46 19 -204 19 -211 1z"/>
<path d="M3439 9611 l-29 -29 0 -467 c0 -396 2 -470 15 -495 18 -35 66 -51
108 -37 58 20 57 8 57 528 l0 477 -31 26 c-41 35 -83 34 -120 -3z"/>
<path d="M5350 9279 l0 -91 111 4 c107 3 112 4 135 31 32 38 32 90 -1 122 -23
24 -31 25 -135 25 l-110 0 0 -91z"/>
<path d="M5350 8840 l0 -90 104 0 c98 0 106 2 135 26 41 34 44 92 6 129 -23
24 -31 25 -135 25 l-110 0 0 -90z"/>
<path d="M1409 8461 c-27 -27 -29 -35 -29 -105 0 -65 3 -79 24 -103 l24 -28
359 -5 c347 -5 359 -6 393 -27 20 -12 46 -40 58 -61 l22 -40 0 -1013 c0 -668
-4 -1027 -10 -1051 -26 -92 -126 -172 -230 -184 -60 -7 -80 -17 -98 -51 -25
-45 -6 -96 45 -122 31 -16 926 -15 956 1 48 25 46 -5 47 874 0 804 -1 833 -19
855 -18 23 -27 24 -158 29 -157 6 -192 19 -235 88 l-23 37 -3 468 -3 467 -545
0 -546 0 -29 -29z"/>
<path d="M5350 8400 l0 -90 101 0 c134 0 168 19 169 93 0 28 -7 44 -26 62 -25
23 -34 25 -135 25 l-109 0 0 -90z"/>
<path d="M1931 7972 c-50 -99 -143 -237 -221 -327 -44 -51 -60 -77 -58 -95 l3
-25 218 -3 217 -2 0 265 0 265 -60 0 -60 0 -39 -78z"/>
<path d="M729 5564 c-71 -21 -140 -73 -184 -137 l-40 -59 -3 -113 c-3 -100 -1
-117 18 -155 34 -66 104 -135 165 -161 l55 -24 0 -643 c0 -450 3 -650 11 -665
6 -12 108 -119 226 -238 l215 -216 -38 -7 c-27 -6 -55 -24 -98 -66 l-61 -59
-60 21 c-75 25 -178 21 -247 -9 -63 -29 -132 -94 -163 -156 -22 -44 -25 -64
-25 -152 0 -88 3 -108 25 -152 35 -70 108 -135 181 -163 81 -30 196 -25 269
12 64 33 120 89 153 153 36 71 42 188 13 265 l-21 54 37 38 37 38 91 0 90 0
268 -268 267 -267 0 -107 0 -107 -392 -3 -393 -3 -57 -28 c-61 -30 -116 -84
-147 -145 -11 -22 -111 -273 -221 -557 l-202 -518 4 -101 c2 -71 9 -112 21
-137 32 -65 85 -117 155 -151 l67 -33 2265 0 2265 0 57 28 c125 61 195 179
190 321 -2 62 -19 112 -202 582 -110 283 -209 534 -221 559 -28 59 -86 118
-151 152 l-53 28 -397 3 -398 3 0 62 0 62 273 273 272 272 151 0 151 0 17 -45
c25 -63 96 -139 164 -172 50 -24 69 -28 147 -28 80 0 97 3 148 29 66 34 130
98 158 159 l19 42 0 -203 c0 -167 3 -209 16 -235 23 -45 44 -66 86 -88 36 -18
88 -19 1703 -19 1643 0 1666 0 1705 20 51 26 87 75 100 136 7 33 10 373 8
1049 -3 989 -3 1000 -24 1039 -11 22 -37 54 -58 70 l-38 31 -1679 3 c-1634 2
-1680 2 -1717 -17 -42 -22 -63 -43 -86 -88 -14 -29 -16 -109 -16 -765 l0 -733
-24 50 c-31 68 -108 137 -182 165 -81 30 -196 25 -269 -12 -64 -33 -137 -110
-160 -171 l-18 -47 -190 0 -191 0 -233 -232 -233 -232 0 129 0 130 503 502
502 503 3 529 3 528 44 17 c63 25 139 97 172 164 24 49 28 69 28 142 0 71 -4
94 -26 141 -34 72 -96 134 -168 168 -75 35 -201 37 -273 4 -188 -86 -259 -320
-148 -492 39 -59 95 -106 163 -134 l37 -16 0 -483 0 -484 -45 -44 -45 -44
-120 119 -120 119 -2 196 -3 195 -88 3 -88 3 3 -230 3 -231 147 -147 148 -148
-233 -233 -232 -232 -83 83 -82 82 0 148 0 147 -85 0 -85 0 0 -186 0 -185 105
-108 104 -107 -90 -90 c-50 -49 -97 -101 -105 -116 -11 -22 -14 -92 -14 -373
l0 -345 -165 0 -165 0 0 697 0 697 250 251 250 251 0 272 0 271 57 27 c69 33
130 92 163 159 21 42 25 64 25 145 0 112 -21 167 -93 238 -67 67 -139 97 -237
96 -98 0 -172 -30 -237 -96 -72 -72 -93 -126 -93 -238 0 -101 13 -139 72 -217
28 -36 105 -88 146 -98 l27 -7 0 -242 0 -241 -252 -252 -253 -253 -3 -730 -3
-730 -162 2 -162 3 -3 1342 -2 1342 53 25 c109 52 175 135 196 248 27 150 -56
306 -197 371 -72 33 -198 31 -273 -4 -72 -34 -134 -96 -168 -168 -22 -47 -26
-70 -26 -141 0 -73 4 -93 28 -142 33 -68 109 -139 172 -164 l45 -17 0 -866 0
-866 -120 120 -120 119 -2 321 -3 320 -88 3 -88 3 3 -356 3 -355 208 -208 207
-207 0 -363 0 -362 -165 0 -165 0 0 227 0 227 -402 403 -403 403 235 235 235
235 3 314 3 314 54 27 c71 34 148 119 171 187 20 60 22 154 6 214 -26 93 -116
186 -211 219 -64 22 -169 19 -235 -6 -77 -28 -146 -94 -182 -171 -40 -88 -41
-197 -3 -279 34 -72 96 -134 165 -166 l54 -24 0 -282 0 -282 -207 -207 -208
-208 -82 82 -83 83 0 156 0 156 45 17 c62 24 139 97 171 161 112 230 -67 498
-321 483 -86 -6 -148 -32 -210 -89 -175 -162 -127 -456 89 -550 l56 -24 0
-190 0 -190 545 -545 545 -545 0 -192 0 -193 -164 0 -165 0 -3 145 -3 145
-587 588 -588 587 0 615 0 615 56 24 c65 28 134 95 165 160 33 69 38 188 10
262 -62 165 -245 255 -412 203z m143 -164 c46 -13 105 -77 114 -125 25 -133
-110 -237 -232 -179 -64 30 -103 108 -90 179 12 64 89 130 156 134 8 0 31 -4
52 -9z m2229 -25 c49 -32 73 -84 67 -147 -8 -82 -64 -138 -146 -146 -111 -10
-200 92 -172 197 31 115 152 161 251 96z m1984 16 c170 -78 108 -326 -78 -308
-117 11 -183 135 -126 236 45 80 125 109 204 72z m-976 -268 c50 -38 66 -71
66 -133 0 -44 -5 -66 -21 -87 -36 -48 -82 -73 -136 -73 -60 0 -98 19 -135 67
-36 47 -40 136 -7 179 60 81 160 101 233 47z m-1851 -80 c53 -39 74 -82 70
-144 -5 -70 -35 -114 -96 -141 -63 -28 -120 -18 -171 30 -115 110 -36 291 122
279 27 -3 60 -13 75 -24z m-796 -483 c52 -15 105 -77 113 -135 6 -37 3 -54
-17 -93 -33 -65 -85 -94 -156 -89 -85 6 -141 61 -150 146 -6 67 29 129 90 160
48 24 67 25 120 11z m3887 -1440 c94 -47 117 -168 48 -247 -57 -65 -124 -79
-197 -40 -82 43 -112 143 -67 222 43 77 138 105 216 65z m-4449 -253 c51 -27
90 -90 90 -146 -1 -79 -81 -160 -159 -161 -49 0 -117 36 -140 73 -43 70 -39
136 12 194 58 65 124 79 197 40z m1010 -896 l0 -80 -224 -3 c-202 -3 -226 -5
-245 -22 -21 -19 -281 -780 -281 -824 0 -13 13 -37 29 -53 l29 -29 1791 0
1790 0 27 24 c22 18 28 32 27 59 -1 30 -178 583 -245 765 -30 80 -38 82 -293
82 l-215 0 0 80 0 80 363 0 c356 0 364 0 407 -22 30 -16 52 -36 67 -63 12 -22
109 -267 217 -544 137 -352 196 -516 196 -543 0 -56 -26 -105 -73 -136 l-41
-27 -2204 -3 c-1496 -1 -2217 1 -2243 8 -78 21 -138 106 -124 178 6 33 385
1013 410 1062 19 35 58 70 91 80 16 4 190 9 387 9 l357 1 0 -79z m510 -1 l0
-80 -165 0 -165 0 0 80 0 80 165 0 165 0 0 -80z m500 0 l0 -80 -165 0 -165 0
0 80 0 80 165 0 165 0 0 -80z m500 0 l0 -80 -162 2 -163 3 -3 64 c-2 35 -1 70
2 77 4 11 40 14 166 14 l160 0 0 -80z m510 0 l0 -80 -165 0 -165 0 0 80 0 80
165 0 165 0 0 -80z m-2020 -425 l0 -165 90 0 90 0 0 165 0 165 165 0 165 0 0
-165 0 -165 85 0 85 0 0 165 0 165 165 0 165 0 0 -165 0 -165 85 0 85 0 2 163
3 162 162 3 163 2 2 -162 3 -163 88 -3 87 -3 0 166 0 165 165 0 165 0 0 -165
0 -165 85 0 85 0 0 165 0 165 179 0 179 0 93 -277 c50 -153 94 -284 97 -290 3
-10 -328 -13 -1637 -13 -903 0 -1641 3 -1641 8 0 6 168 515 185 560 3 9 49 12
180 12 l175 0 0 -165z"/>
<path d="M4432 4738 l3 -83 83 -3 82 -3 0 86 0 85 -85 0 -86 0 3 -82z"/>
<path d="M2502 4403 l3 -168 83 -3 82 -3 0 171 0 170 -85 0 -85 0 2 -167z"/>
<path d="M9504 4491 c-48 -12 -92 -48 -116 -94 -19 -36 -22 -59 -22 -162 l-1
-120 678 -3 679 -2 -4 133 c-3 123 -5 136 -28 170 -13 20 -43 46 -65 59 l-40
23 -525 2 c-289 1 -539 -2 -556 -6z"/>
<path d="M9367 3943 c-4 -3 -7 -57 -7 -120 l0 -113 680 0 680 0 0 120 0 120
-673 0 c-371 0 -677 -3 -680 -7z"/>
<path d="M9360 2748 c0 -509 4 -809 11 -838 14 -60 52 -108 105 -132 41 -18
70 -19 582 -16 l538 3 41 27 c24 16 49 44 62 70 21 44 21 49 21 861 l0 817
-680 0 -680 0 0 -792z m740 37 c102 -53 60 -215 -55 -215 -38 0 -83 26 -100
60 -53 103 52 208 155 155z m294 -406 c34 -27 36 -82 4 -116 l-21 -23 -332 0
-332 0 -23 25 c-32 34 -30 83 5 113 26 22 29 22 349 22 312 0 324 -1 350 -21z"/>
<path d="M6939 2214 l-24 -26 -3 -279 -3 -279 -144 0 c-135 0 -145 -1 -170
-23 -35 -30 -37 -88 -4 -123 l22 -24 791 0 c643 1 794 3 809 14 27 21 40 68
27 101 -19 50 -33 54 -192 55 l-148 0 0 260 c0 277 -6 316 -48 339 -14 7 -163
11 -455 11 l-434 0 -24 -26z"/>
</g>
</svg>
