<?xml version="1.0" standalone="no"?>
<!DOCTYPE svg PUBLIC "-//W3C//DTD SVG 20010904//EN"
 "http://www.w3.org/TR/2001/REC-SVG-20010904/DTD/svg10.dtd">
<svg version="1.0" xmlns="http://www.w3.org/2000/svg"
 width="980.000000pt" height="918.000000pt" viewBox="0 0 980.000000 918.000000"
 preserveAspectRatio="xMidYMid meet">

<g transform="translate(0.000000,918.000000) scale(0.100000,-0.100000)"
fill="#000000" stroke="none">
<path d="M1885 8526 c-987 -451 -1448 -657 -1488 -664 -79 -15 -138 -47 -197
-106 -67 -68 -104 -126 -140 -218 -64 -164 -60 16 -60 -2948 0 -2964 -4 -2784
60 -2948 70 -180 189 -295 338 -324 37 -7 554 -238 1492 -665 l1435 -653 48
10 c140 30 259 147 327 322 64 166 60 -149 60 4258 0 4406 4 4092 -60 4258
-54 140 -143 246 -245 293 -121 56 25 113 -1570 -615z m888 -3204 c316 -115
452 -476 294 -777 -18 -33 -59 -87 -92 -120 -213 -213 -554 -213 -769 0 -107
105 -159 234 -158 389 2 247 158 451 402 522 70 21 251 13 323 -14z"/>
<path d="M4560 8015 l0 -365 990 0 990 0 0 -670 0 -670 321 0 320 0 -3 723
c-4 710 -4 723 -26 801 -62 222 -198 397 -377 485 -125 62 -102 61 -1207 61
l-1008 0 0 -365z"/>
<path d="M7650 6377 l0 -507 -1235 0 -1235 0 2 -1142 3 -1143 1232 -3 1233 -2
2 -461 3 -461 1060 1042 c583 573 1066 1048 1073 1054 10 10 -159 182 -865
877 -483 475 -967 951 -1075 1058 l-198 195 0 -507z"/>
<path d="M6547 3253 c-4 -3 -7 -393 -7 -865 l0 -858 -990 0 -990 0 0 -365 0
-365 1008 0 c834 0 1019 3 1074 15 239 50 438 259 511 535 l22 85 0 910 0 910
-311 3 c-171 1 -313 -1 -317 -5z"/>
</g>
</svg>
