<?xml version="1.0" standalone="no"?>
<!DOCTYPE svg PUBLIC "-//W3C//DTD SVG 20010904//EN"
 "http://www.w3.org/TR/2001/REC-SVG-20010904/DTD/svg10.dtd">
<svg version="1.0" xmlns="http://www.w3.org/2000/svg"
 width="512.000000pt" height="512.000000pt" viewBox="0 0 512.000000 512.000000"
 preserveAspectRatio="xMidYMid meet">

<g transform="translate(0.000000,512.000000) scale(0.100000,-0.100000)"
fill="#000000" stroke="none">
<path d="M2013 5104 c-18 -9 -42 -31 -53 -49 -20 -32 -20 -49 -20 -954 l0
-921 -921 0 c-907 0 -922 0 -954 -20 -66 -41 -65 -33 -65 -600 0 -567 -1 -559
65 -600 32 -20 47 -20 954 -20 l921 0 0 -921 c0 -907 0 -922 20 -954 41 -66
33 -65 600 -65 567 0 559 -1 600 65 20 32 20 47 20 954 l0 921 921 0 c907 0
922 0 954 20 66 41 65 33 65 600 0 567 1 559 -65 600 -32 20 -47 20 -954 20
l-921 0 0 921 c0 907 0 922 -20 954 -41 66 -32 65 -602 65 -450 0 -517 -2
-545 -16z"/>
</g>
</svg>
