<?xml version="1.0" standalone="no"?>
<!DOCTYPE svg PUBLIC "-//W3C//DTD SVG 20010904//EN"
 "http://www.w3.org/TR/2001/REC-SVG-20010904/DTD/svg10.dtd">
<svg version="1.0" xmlns="http://www.w3.org/2000/svg"
 width="512.000000pt" height="512.000000pt" viewBox="0 0 512.000000 512.000000"
 preserveAspectRatio="xMidYMid meet">

<g transform="translate(0.000000,512.000000) scale(0.100000,-0.100000)"
fill="#000000" stroke="none">
<path d="M2485 4781 c-22 -10 -54 -33 -70 -52 -17 -19 -259 -380 -540 -802
l-510 -766 -581 -1 c-651 0 -651 0 -716 -67 -45 -47 -68 -107 -68 -183 0 -43
70 -318 294 -1151 162 -602 300 -1109 307 -1128 47 -133 166 -246 307 -293 52
-17 136 -18 1652 -18 1560 0 1599 0 1661 20 118 36 217 117 269 220 43 86 630
2275 630 2350 0 76 -23 136 -68 183 -65 67 -67 67 -692 67 l-557 0 -514 771
c-282 424 -529 785 -548 801 -76 67 -176 86 -256 49z m454 -1109 c189 -277
341 -506 338 -508 -2 -2 -317 -3 -699 -2 l-695 3 350 513 c192 282 353 510
357 505 4 -4 161 -234 349 -511z m-256 -1467 c88 -18 158 -57 228 -125 186
-182 185 -475 -2 -662 -176 -177 -462 -179 -645 -6 -100 94 -145 200 -145 338
0 256 202 461 461 469 19 0 66 -6 103 -14z"/>
</g>
</svg>
