<?xml version="1.0" standalone="no"?>
<!DOCTYPE svg PUBLIC "-//W3C//DTD SVG 20010904//EN"
 "http://www.w3.org/TR/2001/REC-SVG-20010904/DTD/svg10.dtd">
<svg version="1.0" xmlns="http://www.w3.org/2000/svg"
 width="512.000000pt" height="512.000000pt" viewBox="0 0 512.000000 512.000000"
 preserveAspectRatio="xMidYMid meet">

<g transform="translate(0.000000,512.000000) scale(0.100000,-0.100000)"
fill="#000000" stroke="none">
<path d="M2330 5109 c-983 -93 -1821 -736 -2170 -1665 -111 -295 -169 -645
-158 -960 5 -154 19 -200 68 -236 29 -21 336 -88 402 -88 50 0 96 27 123 72
16 28 18 46 15 113 -9 142 -4 408 9 485 68 432 258 807 561 1110 303 303 670
489 1110 562 99 16 411 16 525 -1 301 -44 603 -162 845 -330 75 -52 210 -161
210 -169 0 -3 -43 -49 -95 -102 -52 -53 -99 -109 -105 -124 -25 -67 -2 -141
55 -176 17 -10 125 -48 240 -85 116 -36 339 -109 497 -161 157 -52 299 -94
315 -94 68 0 133 73 133 150 0 58 -207 1094 -227 1137 -17 36 -61 67 -109 77
-51 11 -102 -18 -191 -107 l-83 -81 -42 40 c-148 142 -419 318 -638 414 -414
183 -863 260 -1290 219z"/>
<path d="M4603 2954 c-83 -28 -107 -89 -91 -232 12 -118 4 -345 -17 -467 -74
-421 -258 -779 -555 -1075 -303 -303 -670 -489 -1110 -562 -99 -16 -411 -16
-525 1 -278 40 -561 146 -790 295 -87 56 -265 194 -265 205 0 2 43 48 95 101
52 53 99 109 105 124 25 67 1 144 -57 177 -15 9 -129 49 -253 88 -124 40 -349
113 -501 163 -303 100 -319 102 -380 51 -37 -32 -51 -64 -50 -118 0 -56 209
-1083 228 -1122 17 -36 61 -67 108 -77 56 -12 95 10 185 99 l86 85 94 -81
c571 -487 1347 -699 2091 -569 980 170 1791 922 2037 1885 70 275 98 592 73
814 -15 123 -44 146 -242 186 -198 41 -223 43 -266 29z"/>
</g>
</svg>
