<?xml version="1.0" standalone="no"?>
<!DOCTYPE svg PUBLIC "-//W3C//DTD SVG 20010904//EN"
 "http://www.w3.org/TR/2001/REC-SVG-20010904/DTD/svg10.dtd">
<svg version="1.0" xmlns="http://www.w3.org/2000/svg"
 width="512.000000pt" height="512.000000pt" viewBox="0 0 512.000000 512.000000"
 preserveAspectRatio="xMidYMid meet">

<g transform="translate(0.000000,512.000000) scale(0.100000,-0.100000)"
fill="#000000" stroke="none">
<path d="M2385 5106 c-274 -46 -492 -158 -679 -350 -454 -465 -448 -1213 13
-1674 300 -299 738 -417 1146 -308 452 121 789 490 870 950 31 183 13 414 -47
590 -135 394 -479 695 -893 781 -107 23 -309 28 -410 11z"/>
<path d="M2030 2560 c-352 -26 -671 -160 -935 -394 -214 -189 -388 -475 -460
-756 -45 -173 -47 -203 -52 -817 l-5 -593 1982 0 1982 0 -5 593 c-5 614 -7
644 -52 817 -57 221 -171 438 -328 621 -224 262 -553 447 -906 511 -106 19
-160 21 -616 23 -275 2 -547 0 -605 -5z"/>
</g>
</svg>
